# Created with Anim8or 1.00
# Object "room":

mtllib cabin_room_export.mtl

# Shape "mesh01":
g mesh01
# No. points 142:
v -204.521 -2.38387 -204.521
v -204.521 -2.38387 204.521
v -204.521 2.38388 -204.521
v -204.521 2.38388 204.521
v 204.521 -2.38388 -204.521
v 204.521 -2.38388 204.521
v 204.521 2.38387 -204.521
v 204.521 2.38387 204.521
v -191.025 -2.38387 -204.521
v -191.025 2.38388 -204.521
v -191.025 2.38388 204.521
v -191.025 -2.38387 204.521
v 193.885 -2.38388 -204.521
v 193.885 2.38387 -204.521
v 193.885 2.38387 204.521
v 193.885 -2.38388 204.521
v -204.521 2.38388 -189.898
v -204.521 -2.38387 -189.898
v 204.521 -2.38388 -189.898
v 204.521 2.38387 -189.898
v -191.025 2.38388 -189.898
v -191.025 -2.38387 -189.898
v 193.885 2.38387 -189.898
v 193.885 -2.38388 -189.898
v -191.025 215.125 -189.898
v -191.025 215.125 204.521
v -204.521 215.125 204.521
v -204.521 215.125 -189.898
v -204.521 215.125 -189.898
v -204.521 215.125 -204.521
v -191.025 215.125 -204.521
v -191.025 215.125 -189.898
v -191.025 215.125 -189.898
v -191.025 215.125 -204.521
v 193.885 215.125 -204.521
v 193.885 215.125 -189.898
v 193.885 215.125 -189.898
v 193.885 215.125 -204.521
v 204.521 215.125 -204.521
v 204.521 215.125 -189.898
v 204.521 215.125 -189.898
v 204.521 215.125 204.521
v 193.885 215.125 204.521
v 193.885 215.125 -189.898
v -204.521 2.38388 -124.047
v -204.521 -2.38387 -124.047
v 204.521 -2.38388 -124.047
v 204.521 2.38387 -124.047
v -191.025 2.38388 -124.047
v -191.025 -2.38387 -124.047
v 193.885 2.38387 -124.047
v 193.885 -2.38388 -124.047
v -191.025 215.125 -124.047
v -204.521 215.125 -124.047
v 204.521 215.125 -124.047
v 193.885 215.125 -124.047
v -204.521 2.38388 -19.5405
v -204.521 -2.38387 -19.5405
v 204.521 -2.38388 -19.5405
v 204.521 2.38387 -19.5405
v -191.025 -2.38387 -19.5405
v 193.885 2.38387 -19.5405
v -191.025 2.38388 -19.5405
v 193.885 -2.38388 -19.5405
v -191.025 215.125 -19.5405
v -204.521 215.125 -19.5405
v 204.521 215.125 -19.5405
v 193.885 215.125 -19.5405
v -191.025 169.312 -189.898
v -204.521 169.312 -189.898
v -191.025 169.312 204.521
v -204.521 169.312 204.521
v -204.521 169.312 -189.898
v -191.025 169.312 -189.898
v -204.521 169.312 -204.521
v -191.025 169.312 -204.521
v -191.025 169.312 -189.898
v 193.885 169.312 -189.898
v -191.025 169.312 -204.521
v 193.885 169.312 -204.521
v 193.885 169.312 -189.898
v 204.521 169.312 -189.898
v 193.885 169.312 -204.521
v 204.521 169.312 -204.521
v 204.521 169.312 -189.898
v 193.885 169.312 -189.898
v 204.521 169.312 204.521
v 193.885 169.312 204.521
v -191.025 169.312 -124.047
v -204.521 169.312 -124.047
v 204.521 169.312 -124.047
v 193.885 169.312 -124.047
v -191.025 169.312 -19.5405
v -204.521 169.312 -19.5405
v 204.521 169.312 -19.5405
v 193.885 169.312 -19.5405
v -204.521 69.3686 -189.898
v -191.025 69.3686 -189.898
v -191.025 69.3686 204.521
v -204.521 69.3686 204.521
v -191.025 69.3686 -189.898
v -204.521 69.3686 -189.898
v -204.521 69.3686 -204.521
v -191.025 69.3686 -204.521
v 193.885 69.3686 -189.898
v -191.025 69.3686 -189.898
v -191.025 69.3686 -204.521
v 193.885 69.3686 -204.521
v 204.521 69.3686 -189.898
v 193.885 69.3686 -189.898
v 193.885 69.3686 -204.521
v 204.521 69.3686 -204.521
v 193.885 69.3686 -189.898
v 204.521 69.3686 -189.898
v 204.521 69.3686 204.521
v 193.885 69.3686 204.521
v -191.025 69.3686 -124.047
v -204.521 69.3686 -124.047
v 204.521 69.3686 -124.047
v 193.885 69.3686 -124.047
v -191.025 69.3686 -19.5405
v -204.521 69.3686 -19.5405
v 204.521 69.3686 -19.5405
v 193.885 69.3686 -19.5405
v -204.521 65.2102 -189.898
v -191.025 65.2102 -189.898
v -191.025 65.2102 204.521
v -204.521 65.2102 204.521
v -191.025 65.2102 -189.898
v -204.521 65.2102 -189.898
v -204.521 65.2102 -204.521
v -191.025 65.2102 -204.521
v -191.025 65.2102 -189.898
v -191.025 65.2102 -204.521
v -191.025 65.2102 -124.047
v -204.521 65.2102 -124.047
v -191.025 65.2102 -19.5405
v -204.521 65.2102 -19.5405
v -186.795 65.2102 -19.5405
v -186.795 69.3686 -19.5405
v -186.795 69.3686 -124.047
v -186.795 65.2102 -124.047

# No. normals 602:
vn 0 0 -1
vn 0 0 1
vn 0 0 -1
vn 0 0 -1
vn 0 0 1
vn 0 0 1
vn -1 0 0
vn 1 0 0
vn 0 -1 0
vn 0 -1 0
vn 0 -1 0
vn 0 1 0
vn 0 1 0
vn 0 1 0
vn -1 0 0
vn 1 0 0
vn 0 -1 0
vn 0 1 0
vn 0 -1 0
vn 0 -1 0
vn 0 1 0
vn 0 1 0
vn -1 0 0
vn -1 0 0
vn 1 0 0
vn 1 0 0
vn 0 -1 0
vn 0 -1 0
vn 0 1 0
vn 0 1 0
vn 0 -1 0
vn 0 -1 0
vn 0 -1 0
vn 0 -1 0
vn 0 1 0
vn 0 1 0
vn 0 1 0
vn 0 1 0
vn 0 0 -1
vn 0 0 1
vn 0 0 1
vn -1 0 0
vn 0 0 -1
vn 1 0 0
vn 0 0 1
vn -1 0 0
vn 0 0 -1
vn 1 0 0
vn 0 0 1
vn -1 0 0
vn 0 0 -1
vn 1 0 0
vn 0 0 -1
vn 0 0 1
vn 1 0 0
vn -1 0 0
vn 1 0 0
vn -1 0 0
vn 1 0 0
vn 1 0 0
vn -1 0 0
vn -1 0 0
vn 1 0 0
vn 1 0 0
vn -1 0 0
vn -1 0 0
vn 0 0 -1
vn 0 0 1
vn 0 0 1
vn -1 0 0
vn 0 0 -1
vn 1 0 0
vn 0 0 1
vn -1 0 0
vn 0 0 -1
vn 1 0 0
vn 1 0 0
vn 0 0 1
vn 0 0 1
vn -1 0 0
vn -1 0 0
vn 0 0 -1
vn 0 0 -1
vn 1 0 0
vn 1 0 0
vn 0 0 -1
vn 0 0 -1
vn 0 0 1
vn 0 0 1
vn 1 0 0
vn -1 0 0
vn 1 0 0
vn 1 0 0
vn -1 0 0
vn -1 0 0
vn 1 0 0
vn -1 0 0
vn 1 0 0
vn 1 0 0
vn 1 0 0
vn 1 0 0
vn -1 0 0
vn -1 0 0
vn -1 0 0
vn -1 0 0
vn 0 1 0
vn 0 0 1
vn 0 -1 0
vn 0 0 -1
vn 0 0 -1
vn 0 0 -1
vn 0 0 1
vn 0 0 1
vn 0 0 1
vn 0 0 1
vn -1 0 0
vn -1 0 0
vn 0 0 -1
vn 0 0 -1
vn 1 0 0
vn 1 0 0
vn 0 0 1
vn -1 0 0
vn -1 0 0
vn 0 0 -1
vn 1 0 0
vn 1 0 0
vn -1 0 0
vn -1 0 0
vn 1 0 0
vn 1 0 0
vn 1 0 0
vn -1 0 0
vn -1 0 0
vn -1 0 0
vn -1 0 0
vn 0 -1 0
vn 0 0 1
vn 0 1 0
vn 0 0 -1
vn 1 0 0
vn 0 0 -1
vn 0 -1 0
vn -1 0 0
vn 0 0 1
vn 0 -1 0
vn -1 0 0
vn 0 0 -1
vn -1 0 0
vn 0 0 1
vn -1 0 0
vn 0 0 -1
vn 0 -1 0
vn 1 0 0
vn 0 0 1
vn 0 -1 0
vn 1 0 0
vn 0 0 -1
vn 1 0 0
vn 0 0 1
vn 1 0 0
vn 0 0 -1
vn 0 -1 0
vn 0 0 -1
vn -1 0 0
vn 1 0 0
vn 0 0 1
vn 1 0 0
vn 0 1 0
vn 0 0 1
vn 0 -1 0
vn 0 0 -1
vn 0 -1 0
vn 0 0 -1
vn -1 0 0
vn 1 0 0
vn 0 0 1
vn -1 0 0
vn 0 1 0
vn 0 0 1
vn 0 -1 0
vn -1 0 0
vn 0 0 1
vn 0 0 -1
vn -1 0 0
vn 0 -1 0
vn 1 0 0
vn 0 -1 0
vn 1 0 0
vn 0 0 -1
vn 0 0 1
vn 0 1 0
vn 1 0 0
vn -1 0 0
vn 0 0 1
vn 1 0 0
vn 0 0 1
vn 0 0 -1
vn 0 -1 0
vn 0 1 0
vn 0 0 1
vn -1 0 0
vn 0 0 -1
vn -1 0 0
vn 0 0 1
vn 1 0 0
vn 0 -1 0
vn 0 1 0
vn 1 0 0
vn 0 0 -1
vn 0 1 0
vn 1 0 0
vn 0 0 1
vn 0 1 0
vn -1 0 0
vn 0 0 1
vn 0 1 0
vn -1 0 0
vn 0 0 -1
vn 0 1 0
vn -1 0 0
vn 0 0 1
vn 0 1 0
vn 0 0 -1
vn -1 0 0
vn 0 1 0
vn 1 0 0
vn 0 0 -1
vn 0 1 0
vn 1 0 0
vn 0 0 1
vn 0 1 0
vn -1 0 0
vn 0 0 1
vn 0 1 0
vn 0 0 -1
vn -1 0 0
vn 0 1 0
vn 1 0 0
vn 0 0 -1
vn 0 1 0
vn 1 0 0
vn 0 0 1
vn 0 1 0
vn -1 0 0
vn 0 0 1
vn 0 1 0
vn 0 0 -1
vn -1 0 0
vn 0 1 0
vn 1 0 0
vn 0 0 -1
vn 0 1 0
vn 1 0 0
vn 0 0 1
vn 0 1 0
vn 1 0 0
vn 0 0 -1
vn 0 1 0
vn 1 0 0
vn 0 0 1
vn 0 1 0
vn -1 0 0
vn 0 0 1
vn 0 1 0
vn -1 0 0
vn 0 0 -1
vn -1 0 0
vn -1 0 0
vn 0 -1 0
vn 1 0 0
vn 0 -1 0
vn 1 0 0
vn 0 1 0
vn 1 0 0
vn 0 -1 0
vn 0 1 0
vn -1 0 0
vn 0 -1 0
vn 0 1 0
vn 1 0 0
vn 0 1 0
vn -1 0 0
vn 0 1 0
vn 1 0 0
vn 0 1 0
vn -1 0 0
vn -1 0 0
vn -1 0 0
vn 0 -1 0
vn 1 0 0
vn 0 -1 0
vn 1 0 0
vn 0 -1 0
vn 0 1 0
vn -1 0 0
vn 0 1 0
vn 1 0 0
vn 0 -1 0
vn 0 1 0
vn 1 0 0
vn 0 1 0
vn -1 0 0
vn 0 1 0
vn 1 0 0
vn 0 1 0
vn -1 0 0
vn 0 0 -1
vn 1 0 0
vn 0 0 -1
vn -1 0 0
vn 0 0 1
vn 1 0 0
vn 0 0 1
vn -1 0 0
vn 0 0 1
vn -1 0 0
vn 0 0 1
vn 1 0 0
vn -1 0 0
vn 0 0 -1
vn 0 0 -1
vn 1 0 0
vn 0 0 1
vn -1 0 0
vn 0 0 1
vn 1 0 0
vn -1 0 0
vn 0 0 -1
vn 0 0 -1
vn 1 0 0
vn 0 0 1
vn -1 0 0
vn 0 0 1
vn 1 0 0
vn -1 0 0
vn 0 0 -1
vn 0 0 -1
vn 1 0 0
vn 0 0 -1
vn 1 0 0
vn 0 0 -1
vn -1 0 0
vn 0 0 1
vn 1 0 0
vn 0 0 1
vn -1 0 0
vn 1 0 0
vn 0 -1 0
vn 0 0 1
vn -1 0 0
vn 0 -1 0
vn 0 0 1
vn 1 0 0
vn -1 0 0
vn 1 0 0
vn 0 0 -1
vn 0 -1 0
vn -1 0 0
vn 0 0 -1
vn 0 -1 0
vn 1 0 0
vn -1 0 0
vn 0 0 -1
vn -1 0 0
vn 0 0 -1
vn 1 0 0
vn 0 0 1
vn 1 0 0
vn 0 0 1
vn -1 0 0
vn 0 0 1
vn 1 0 0
vn 0 0 1
vn -1 0 0
vn -1 0 0
vn 0 0 -1
vn 0 0 -1
vn 1 0 0
vn 0 0 1
vn 1 0 0
vn 0 0 1
vn -1 0 0
vn -1 0 0
vn 0 0 -1
vn 0 0 -1
vn 1 0 0
vn 0 0 1
vn 1 0 0
vn 0 0 1
vn -1 0 0
vn -1 0 0
vn 0 0 -1
vn 0 0 -1
vn 1 0 0
vn 0 0 -1
vn -1 0 0
vn 0 0 -1
vn 1 0 0
vn 0 0 1
vn 1 0 0
vn 0 0 1
vn -1 0 0
vn 1 0 0
vn 0 0 -1
vn 0 1 0
vn 0 0 1
vn -1 0 0
vn 0 0 1
vn 0 1 0
vn 1 0 0
vn -1 0 0
vn 1 0 0
vn 0 1 0
vn 0 0 1
vn 0 0 -1
vn -1 0 0
vn 0 0 -1
vn 0 1 0
vn 1 0 0
vn -1 0 0
vn 0 0 -1
vn -1 0 0
vn 0 0 -1
vn 1 0 0
vn 0 0 1
vn 1 0 0
vn 0 0 1
vn -1 0 0
vn 0 0 1
vn 1 0 0
vn 0 0 1
vn -1 0 0
vn -1 0 0
vn 0 0 -1
vn 0 0 -1
vn 1 0 0
vn 0 0 1
vn -1 0 0
vn -1 0 0
vn 0 0 -1
vn 1 0 0
vn 0 0 -1
vn 0 -1 0
vn -1 0 0
vn 1 0 0
vn 0 0 1
vn 0 -1 0
vn -1 0 0
vn 0 -1 0
vn 1 0 0
vn 0 0 1
vn 0 0 1
vn 1 0 0
vn 0 1 0
vn 0 1 0
vn 1 0 0
vn 0 0 -1
vn 0 -1 0
vn 1 0 0
vn 0 0 -1
vn 0 0 -1
vn 0 0 1
vn 0 0 -1
vn 0 0 -1
vn 0 0 1
vn 0 0 1
vn -1 0 0
vn 1 0 0
vn 0 -1 0
vn 0 -1 0
vn 0 -1 0
vn 0 1 0
vn 0 1 0
vn 0 1 0
vn -1 0 0
vn 1 0 0
vn 0 -1 0
vn 0 1 0
vn 0 -1 0
vn 0 -1 0
vn 0 1 0
vn 0 1 0
vn -1 0 0
vn -1 0 0
vn 1 0 0
vn 1 0 0
vn 0 -1 0
vn 0 -1 0
vn 0 1 0
vn 0 1 0
vn 0 -1 0
vn 0 -1 0
vn 0 -1 0
vn 0 -1 0
vn 0 1 0
vn 0 1 0
vn 0 1 0
vn 0 1 0
vn 0 0 -1
vn 0 0 1
vn 0 0 1
vn -1 0 0
vn 0 0 -1
vn 1 0 0
vn 0 0 1
vn -1 0 0
vn 0 0 -1
vn 1 0 0
vn 0 0 1
vn -1 0 0
vn 0 0 -1
vn 1 0 0
vn 0 0 -1
vn 0 0 1
vn 1 0 0
vn -1 0 0
vn 1 0 0
vn -1 0 0
vn 1 0 0
vn 1 0 0
vn -1 0 0
vn -1 0 0
vn 1 0 0
vn 1 0 0
vn -1 0 0
vn -1 0 0
vn 0 0 -1
vn 0 0 1
vn 0 0 1
vn -1 0 0
vn 0 0 -1
vn 1 0 0
vn 0 0 1
vn -1 0 0
vn 0 0 -1
vn 1 0 0
vn 1 0 0
vn 0 0 1
vn 0 0 1
vn -1 0 0
vn -1 0 0
vn 0 0 -1
vn 0 0 -1
vn 1 0 0
vn 1 0 0
vn 0 0 -1
vn 0 0 -1
vn 0 0 1
vn 0 0 1
vn 1 0 0
vn -1 0 0
vn 1 0 0
vn 1 0 0
vn -1 0 0
vn -1 0 0
vn 1 0 0
vn -1 0 0
vn 1 0 0
vn 1 0 0
vn 1 0 0
vn 1 0 0
vn -1 0 0
vn -1 0 0
vn -1 0 0
vn -1 0 0
vn 0 1 0
vn 0 0 1
vn 0 -1 0
vn 0 0 -1
vn 0 0 -1
vn 0 0 -1
vn 0 0 1
vn 0 0 1
vn 0 0 1
vn 0 0 1
vn -1 0 0
vn -1 0 0
vn 0 0 -1
vn 0 0 -1
vn 1 0 0
vn 1 0 0
vn 0 0 1
vn -1 0 0
vn -1 0 0
vn 0 0 -1
vn 1 0 0
vn 1 0 0
vn -1 0 0
vn -1 0 0
vn 1 0 0
vn 1 0 0
vn 1 0 0
vn -1 0 0
vn -1 0 0
vn -1 0 0
vn -1 0 0
vn 0 -1 0
vn 0 0 1
vn 0 1 0
vn 0 0 -1
vn 1 0 0

# No. texture coordinates 58:
vt 0 0
vt 0 0
vt 0 1
vt 0 1
vt 1 0
vt 1 0
vt 1 1
vt 1 1
vt 0.03299 0
vt 0.03299 1
vt 0.03299 1
vt 0.03299 0
vt 0.03299 1
vt 0.03299 0
vt 0.03299 0
vt 0.97400 0
vt 0.97400 1
vt 0.97400 1
vt 0.97400 0
vt 0.97400 1
vt 0.97400 0
vt 0.97400 0
vt 0 1
vt 0 0
vt 1 0
vt 1 1
vt 0 0
vt 0.03299 0
vt 0.03299 1
vt 0.97400 1
vt 0.03299 0
vt 0.97400 0
vt 1 0
vt 0.97400 0
vt 0 1
vt 0 0
vt 1 0
vt 1 1
vt 0 0
vt 0.03299 0
vt 0.97400 1
vt 0.03299 1
vt 0.03299 0
vt 0.97400 0
vt 0.97400 0
vt 1 0
vt 0 1
vt 0 0
vt 1 0
vt 1 1
vt 0 0
vt 0.03299 0
vt 0.97400 1
vt 0.03299 1
vt 0.03299 0
vt 0.97400 0
vt 0.97400 0
vt 1 0

# No. faces 141:

usemtl ___default___

f 9/9/162 1/1/142 3/3/148 10/10/164
f 11/11/167 4/4/150 2/2/145 12/12/170
f 13/16/172 9/9/162 10/10/164 14/17/174
f 14/17/174 7/7/158 5/5/152 13/16/172
f 15/18/177 11/11/167 12/12/170 16/19/180
f 16/19/180 6/6/155 8/8/160 15/18/177
f 17/23/182 3/3/149 1/1/144 18/24/185
f 19/25/187 5/5/154 7/7/159 20/26/189
f 18/27/186 1/1/143 9/15/163 22/28/199
f 22/31/199 9/15/163 13/22/173 24/32/207
f 24/34/207 13/22/173 5/5/153 19/33/188
f 32//229 31//226 30//223 29//220
f 36//241 35//238 34//235 33//232
f 40//253 39//250 38//247 37//244
f 45/35/268 17/23/182 18/24/185 46/36/269
f 47/37/271 19/25/187 20/26/189 48/38/273
f 46/39/270 18/27/186 22/28/199 50/40/276
f 51/41/277 23/30/200 21/29/192 49/42/274
f 50/43/276 22/31/199 24/32/207 52/44/279
f 52/45/279 24/34/207 19/33/188 47/46/272
f 53//280 25//208 28//217 54//282
f 55//284 41//256 44//265 56//286
f 57/47/288 45/35/268 46/36/269 58/48/289
f 58/48/289 2/2/147 4/4/151 57/47/288
f 59/49/291 47/37/271 48/38/273 60/50/293
f 60/50/293 8/8/161 6/6/157 59/49/291
f 58/51/290 46/39/270 50/40/276 61/52/294
f 61/52/294 12/14/171 2/2/146 58/51/290
f 62/53/295 51/41/277 49/42/274 63/54/297
f 63/54/297 11/13/169 15/20/179 62/53/295
f 61/55/294 50/43/276 52/44/279 64/56/299
f 64/56/299 16/21/181 12/14/171 61/55/294
f 64/57/299 52/45/279 47/46/272 59/58/292
f 59/58/292 6/6/156 16/21/181 64/57/299
f 65//300 53//280 54//282 66//302
f 66//302 27//214 26//211 65//300
f 67//304 55//284 56//286 68//306
f 68//306 43//262 42//259 67//304
f 70//310 28//219 25//210 69//308
f 71//312 26//213 27//216 72//314
f 74//318 32//231 29//222 73//316
f 73//317 29//221 30//225 75//320
f 75//321 30//224 31//228 76//322
f 76//323 31//227 32//230 74//319
f 78//326 36//243 33//234 77//324
f 77//325 33//233 34//237 79//328
f 79//329 34//236 35//240 80//330
f 80//331 35//239 36//242 78//327
f 82//334 40//255 37//246 81//332
f 81//333 37//245 38//249 83//336
f 83//337 38//248 39//252 84//338
f 84//339 39//251 40//254 82//335
f 86//342 44//267 41//258 85//340
f 87//344 42//261 43//264 88//346
f 69//309 25//209 53//281 89//348
f 90//351 54//283 28//218 70//311
f 85//341 41//257 55//285 91//354
f 92//355 56//287 44//266 86//343
f 89//348 53//281 65//301 93//356
f 93//356 65//301 26//212 71//313
f 94//359 66//303 54//283 90//351
f 72//315 27//215 66//303 94//359
f 91//354 55//285 67//305 95//362
f 95//362 67//305 42//260 87//345
f 96//363 68//307 56//287 92//355
f 88//347 43//263 68//307 96//363
f 97//364 70//310 69//308 98//366
f 99//368 71//312 72//314 100//370
f 101//372 74//318 73//316 102//374
f 102//375 73//317 75//320 103//376
f 103//377 75//321 76//322 104//378
f 104//379 76//323 74//319 101//373
f 105//380 78//326 77//324 106//382
f 106//383 77//325 79//328 107//384
f 107//385 79//329 80//330 108//386
f 108//387 80//331 78//327 105//381
f 105//381 23//206 14//176 108//387
f 109//388 82//334 81//332 110//390
f 110//390 23//205 20//191 109//388
f 110//391 81//333 83//336 111//392
f 111//392 14//175 23//204 110//391
f 111//393 83//337 84//338 112//394
f 112//394 7//158 14//174 111//393
f 112//395 84//339 82//335 109//389
f 109//389 20//189 7//159 112//395
f 113//396 86//342 85//340 114//398
f 114//398 20//190 23//203 113//396
f 115//400 87//344 88//346 116//402
f 116//402 15//177 8//160 115//400
f 98//367 69//309 89//348 117//404
f 118//408 90//351 70//311 97//365
f 114//399 85//341 91//354 119//411
f 119//411 48//273 20//189 114//399
f 120//412 92//355 86//343 113//397
f 113//397 23//202 51//278 120//412
f 121//413 93//356 71//313 99//369
f 100//371 72//315 94//359 122//417
f 119//411 91//354 95//362 123//420
f 123//420 60//293 48//273 119//411
f 123//420 95//362 87//345 115//401
f 115//401 8//161 60//293 123//420
f 124//421 96//363 92//355 120//412
f 120//412 51//278 62//296 124//421
f 116//403 88//347 96//363 124//421
f 124//421 62//296 15//178 116//403
f 118//410 122//419 121//414 117//406
f 90//353 118//409 117//407 89//350
f 93//358 94//361 90//352 89//349
f 121//416 122//418 94//360 93//357
f 125//422 97//364 98//366 126//424
f 126//424 21//198 17//184 125//422
f 127//426 99//368 100//370 128//428
f 128//428 4//150 11//167 127//426
f 129//430 101//372 102//374 130//432
f 130//432 17//183 21//197 129//430
f 130//433 102//375 103//376 131//434
f 131//434 3//149 17//182 130//433
f 131//435 103//377 104//378 132//436
f 132//436 10//164 3//148 131//435
f 132//437 104//379 101//373 129//431
f 129//431 21//196 10//166 132//437
f 21//195 23//201 105//380 106//382 133//438
f 133//439 106//383 107//384 134//440
f 134//440 10//165 21//194 133//439
f 107//385 108//386 14//174 10//164 134//441
f 126//425 98//367 117//404 135//442
f 135//442 49//275 21//193 126//425
f 136//445 118//408 97//365 125//423
f 125//423 17//182 45//268 136//445
f 137//446 63//298 49//275 135//442
f 137//446 121//413 99//369 127//427
f 127//427 11//168 63//298 137//446
f 138//449 122//417 118//408 136//445
f 136//445 45//268 57//288 138//449
f 128//429 100//371 122//417 138//449
f 138//449 57//288 4//151 128//429
f 142//459 139//450 137//448 135//444
f 139//452 140//453 121//415 137//447
f 140//455 141//456 117//406 121//414
f 141//458 142//461 135//443 117//405
f 142//460 141//457 140//454 139//451

# End of Object "room"
