# Wavefront OBJ file
# Creator: Ultimate Unwrap3D Pro (x64) v3.50.66
# Website: http://www.unwrap3d.com
# Time: Sat Oct 01 14:59:54 2022
# num_vertices: 8
# num_vertex_normals: 8
# num_uvs: 24
# num_faces: 6
# num_groups: 1

mtllib ground.mtl

v -341.010010 -3.950160 -341.010010
v -341.010010 -3.950150 341.010010
v -341.010010 3.950150 -341.010010
v -341.010010 3.950150 341.010010
v 341.010010 -3.950150 -341.010010
v 341.010010 -3.950150 341.010010
v 341.010010 3.950150 -341.010010
v 341.010010 3.950160 341.010010
# num_vertices: 8

vn -0.577350 -0.577350 -0.577350
vn -0.577350 -0.577350 0.577350
vn -0.577350 0.577350 -0.577350
vn -0.577350 0.577350 0.577350
vn 0.577350 -0.577350 -0.577350
vn 0.577350 -0.577350 0.577350
vn 0.577350 0.577350 -0.577350
vn 0.577350 0.577350 0.577350
# num_vertex_normals: 8

vt 0.744033 0.005654
vt 0.255967 0.005654
vt 0.255967 0.000000
vt 0.744033 0.000000
vt 0.744033 0.005904
vt 0.744033 0.011558
vt 0.255967 0.011558
vt 0.255967 0.005904
vt 0.744033 0.011808
vt 0.744033 0.017462
vt 0.255967 0.017462
vt 0.255967 0.011808
vt 0.744033 0.023366
vt 0.255967 0.023366
vt 0.255967 0.017712
vt 0.744033 0.017712
vt 0.004626 0.004090
vt 0.993386 0.004090
vt 0.993386 0.996156
vt 0.004626 0.996156
vt 0.744033 0.023616
vt 0.744033 0.511683
vt 0.255967 0.511683
vt 0.255967 0.023616
# num_uvs: 24

g mesh01
usemtl material01
f 3/1/3 7/2/7 5/3/5 1/4/1 
f 6/5/6 8/6/8 4/7/4 2/8/2 
f 2/9/2 4/10/4 3/11/3 1/12/1 
f 7/13/7 8/14/8 6/15/6 5/16/5 
f 4/17/4 8/18/8 7/19/7 3/20/3 
f 5/21/5 6/22/6 2/23/2 1/24/1 
# num_faces: 6

