# Blender 3.6.4
# www.blender.org
mtllib test2.mtl
o test2
v -10.159800 -9.531971 -10.045699
v -10.159800 -9.531969 10.045701
v -10.159800 9.646119 -10.045701
v -10.159800 9.646121 10.045699
v 9.931500 -9.531971 -10.045699
v 9.931500 -9.531969 10.045701
v 9.931500 9.646119 -10.045701
v 9.931500 9.646121 10.045699
vn -0.0000 -0.0000 -1.0000
vn -0.0000 -0.0000 1.0000
vn -1.0000 -0.0000 -0.0000
vn 1.0000 -0.0000 -0.0000
vn -0.0000 1.0000 -0.0000
vn -0.0000 -1.0000 -0.0000
vt 0.718732 0.611879
vt 0.953143 0.611879
vt 0.953143 0.388121
vt 0.718732 0.388121
vt 0.285217 0.384353
vt 0.285217 0.615647
vt 0.042908 0.615647
vt 0.042908 0.384353
vt 0.022172 0.244629
vt 0.235640 0.244629
vt 0.235640 0.020996
vt 0.022172 0.020996
vt 0.605123 0.389871
vt 0.605123 0.610129
vt 0.394877 0.610129
vt 0.394877 0.389871
vt 0.392028 0.857972
vt 0.607972 0.857972
vt 0.607972 0.642028
vt 0.392028 0.642028
vt 0.976713 0.015474
vt 0.976713 0.234526
vt 0.757662 0.234526
vt 0.757662 0.015474
s 0
usemtl ___default___
f 3/1/1 7/2/1 5/3/1 1/4/1
f 6/5/2 8/6/2 4/7/2 2/8/2
f 2/9/3 4/10/3 3/11/3 1/12/3
f 7/13/4 8/14/4 6/15/4 5/16/4
f 4/17/5 8/18/5 7/19/5 3/20/5
f 5/21/6 6/22/6 2/23/6 1/24/6
