# Wavefront OBJ file
# Creator: Ultimate Unwrap3D Pro (x64) v3.50.66
# Website: http://www.unwrap3d.com
# Time: Sat Oct 01 04:08:23 2022
# num_vertices: 48
# num_vertex_normals: 48
# num_uvs: 164
# num_faces: 40
# num_groups: 3

mtllib villiage1.mtl

v -66.625099 -32.398300 -28.311300
v -66.625099 -32.398300 28.311300
v -66.625099 32.179600 -28.311300
v -66.625099 32.179600 28.311300
v 66.515800 -32.398300 -28.311300
v 66.515800 -32.398300 28.311300
v 66.515800 32.179600 -28.311300
v 66.515800 32.179600 28.311300
v -66.625099 56.245300 -4.045010
v 66.515800 56.245300 -4.045010
v 66.515800 56.245399 3.042310
v -66.625099 56.245399 3.042310
v -68.224998 75.787399 -41.020599
v -68.224998 75.787399 41.020699
v -68.224998 112.688004 -1.983960
v -68.224998 112.688004 1.983970
v 69.350800 75.787399 -41.020599
v 69.350800 75.787399 41.020699
v 69.350800 112.688004 -1.983960
v 69.350800 112.688004 1.983970
v 69.350800 104.777000 -10.352500
v -68.224998 104.777000 -10.352500
v -68.224998 104.777000 10.352500
v 69.350800 104.777000 10.352500
v 69.350800 104.777000 2.883650
v -68.224899 75.787399 33.540901
v 69.350800 75.787399 33.540901
v -68.224998 104.777000 2.883650
v 69.350800 104.777000 -2.932230
v 69.350800 75.787399 -34.603600
v -68.224998 75.787399 -34.603600
v -68.224998 104.777000 -2.932230
v -99.911697 -32.440800 -13.070600
v -99.911697 -32.440800 13.179900
v -99.911697 75.052803 -9.024660
v -99.911697 75.052803 9.024660
v -81.862396 -32.440800 -13.070600
v -81.862396 -32.440800 13.179900
v -81.862297 75.052803 -9.024660
v -81.862297 75.052803 9.024660
v -81.862297 14.487300 -9.024660
v -99.911697 14.487300 -9.024660
v -99.911697 14.487300 9.024660
v -81.862297 14.487300 9.024660
v -99.911697 10.075300 -13.070600
v -81.862396 10.075300 -13.070600
v -81.862396 10.075300 13.179900
v -99.911697 10.075300 13.179900
# num_vertices: 48

vn -0.577350 -0.577350 -0.577350
vn -0.577350 -0.577350 0.577350
vn -0.734801 0.260867 -0.626112
vn -0.736244 0.266571 0.622000
vn 0.577350 -0.577350 -0.577350
vn 0.577350 -0.577350 0.577350
vn 0.734801 0.260867 -0.626112
vn 0.736244 0.266571 0.622000
vn -0.475647 0.813373 -0.334941
vn 0.475647 0.813373 -0.334941
vn 0.474138 0.817480 0.326986
vn -0.474138 0.817480 0.326986
vn -0.804109 -0.219752 -0.552375
vn -0.804112 -0.219766 0.552365
vn 0.000000 0.929164 -0.369667
vn 0.000000 0.929164 0.369667
vn 0.804109 -0.219752 -0.552375
vn 0.804110 -0.219751 0.552374
vn 0.000000 0.929164 -0.369667
vn 0.000000 0.929164 0.369667
vn 0.447214 0.649983 -0.614428
vn -0.447214 0.649983 -0.614428
vn -0.447217 0.649982 0.614427
vn 0.447214 0.649984 0.614428
vn 0.473876 -0.818191 -0.325585
vn -0.473872 -0.818192 -0.325589
vn 0.473876 -0.818191 -0.325585
vn -0.473872 -0.818192 -0.325589
vn 0.472704 -0.821392 0.319163
vn 0.472704 -0.821392 0.319163
vn -0.472704 -0.821392 0.319163
vn -0.472704 -0.821392 0.319163
vn -0.577350 -0.577350 -0.577350
vn -0.577350 -0.577350 0.577350
vn -0.577350 0.577350 -0.577350
vn -0.577350 0.577350 0.577350
vn 0.577350 -0.577350 -0.577350
vn 0.577350 -0.577350 0.577350
vn 0.577350 0.577350 -0.577350
vn 0.577350 0.577350 0.577350
vn 0.731565 0.247213 -0.635372
vn -0.731564 0.247221 -0.635371
vn -0.732451 0.251087 0.632828
vn 0.732453 0.251079 0.632829
vn -0.731564 0.247221 -0.635371
vn 0.731565 0.247213 -0.635372
vn 0.732453 0.251079 0.632829
vn -0.732451 0.251087 0.632828
# num_vertex_normals: 48

vt 0.793705 0.640692
vt 0.403858 0.640692
vt 0.403858 0.451602
vt 0.793705 0.451602
vt 0.389847 0.210354
vt 0.389847 0.399443
vt 0.000000 0.399443
vt 0.000000 0.210354
vt 0.596142 0.696910
vt 0.596142 0.886000
vt 0.430347 0.886000
vt 0.430347 0.696910
vt 0.429322 0.886000
vt 0.263526 0.886000
vt 0.263526 0.696910
vt 0.429322 0.696910
vt 0.389847 0.043534
vt 0.389847 0.209329
vt 0.000000 0.209329
vt 0.000000 0.043534
vt 0.522153 0.956466
vt 0.501400 0.956466
vt 0.430347 0.886000
vt 0.596142 0.886000
vt 0.390872 0.328390
vt 0.780719 0.328390
vt 0.780719 0.399443
vt 0.390872 0.399443
vt 0.358268 0.956466
vt 0.337516 0.956466
vt 0.263526 0.886000
vt 0.429322 0.886000
vt 0.780719 0.307637
vt 0.390872 0.307637
vt 0.390872 0.233648
vt 0.780719 0.233648
vt 0.390872 0.307637
vt 0.780719 0.307637
vt 0.780719 0.328390
vt 0.390872 0.328390
vt 0.597167 0.830545
vt 1.000000 0.830545
vt 1.000000 0.842164
vt 0.597167 0.842164
vt 1.000000 0.866668
vt 1.000000 0.956466
vt 0.597167 0.956466
vt 0.597167 0.866668
vt 0.597167 0.866668
vt 0.597167 0.842164
vt 1.000000 0.842164
vt 1.000000 0.866668
vt 0.597167 0.806042
vt 0.597167 0.716243
vt 1.000000 0.716243
vt 1.000000 0.806042
vt 1.000000 0.806042
vt 1.000000 0.830545
vt 0.597167 0.830545
vt 0.597167 0.806042
vt 0.402833 0.618790
vt 0.402833 0.640692
vt 0.000000 0.640692
vt 0.000000 0.618790
vt 0.480639 0.124445
vt 0.502540 0.124445
vt 0.412741 0.209329
vt 0.390872 0.209329
vt 0.615233 0.209329
vt 0.593364 0.209329
vt 0.503565 0.124445
vt 0.525467 0.124445
vt 0.402833 0.529023
vt 0.402833 0.511994
vt 0.402833 0.490267
vt 0.402833 0.514770
vt 0.402833 0.526389
vt 0.402833 0.550893
vt 0.000000 0.419258
vt 0.000000 0.400468
vt 0.402833 0.400468
vt 0.402833 0.419258
vt 0.840335 0.209329
vt 0.818608 0.209329
vt 0.728809 0.124445
vt 0.747598 0.124445
vt 0.000000 0.529023
vt 0.000000 0.550893
vt 0.000000 0.526389
vt 0.000000 0.514770
vt 0.000000 0.490267
vt 0.000000 0.511994
vt 0.708995 0.124445
vt 0.727784 0.124445
vt 0.637985 0.209329
vt 0.616258 0.209329
vt 0.000000 0.511994
vt 0.000000 0.419258
vt 0.402833 0.419258
vt 0.402833 0.511994
vt 0.000000 0.529023
vt 0.000000 0.511994
vt 0.402833 0.511994
vt 0.402833 0.529023
vt 0.402833 0.618790
vt 0.000000 0.618790
vt 0.000000 0.529023
vt 0.402833 0.529023
vt 0.895234 0.156479
vt 0.948084 0.156479
vt 0.948084 0.209329
vt 0.895234 0.209329
vt 0.894209 0.132466
vt 0.894209 0.209329
vt 0.841360 0.209329
vt 0.841360 0.132466
vt 0.052850 0.779126
vt 0.052850 0.956466
vt 0.000000 0.956466
vt 0.000000 0.779126
vt 0.184613 0.779126
vt 0.184613 0.956466
vt 0.131763 0.956466
vt 0.131763 0.779126
vt 0.118572 0.779126
vt 0.118572 0.956466
vt 0.065722 0.956466
vt 0.065722 0.779126
vt 0.250655 0.779126
vt 0.250655 0.956466
vt 0.197805 0.956466
vt 0.197805 0.779126
vt 0.052850 0.766207
vt 0.052850 0.779126
vt 0.000000 0.779126
vt 0.000000 0.766207
vt 0.000000 0.766207
vt 0.000000 0.641716
vt 0.052850 0.641716
vt 0.052850 0.766207
vt 0.184613 0.766207
vt 0.184613 0.779126
vt 0.131763 0.779126
vt 0.131763 0.766207
vt 0.131763 0.766207
vt 0.131763 0.641716
vt 0.184613 0.641716
vt 0.184613 0.766207
vt 0.130738 0.766207
vt 0.118572 0.779126
vt 0.065722 0.779126
vt 0.053875 0.766207
vt 0.053875 0.766207
vt 0.053875 0.641716
vt 0.130738 0.641716
vt 0.130738 0.766207
vt 0.262502 0.766207
vt 0.250655 0.779126
vt 0.197805 0.779126
vt 0.185638 0.766207
vt 0.185638 0.766207
vt 0.185638 0.641716
vt 0.262502 0.641716
vt 0.262502 0.766207
# num_uvs: 164

g mesh01
usemtl ___default___
f 3/1/3 7/2/7 5/3/5 1/4/1 
f 6/5/6 8/6/8 4/7/4 2/8/2 
f 2/9/2 4/10/4 3/11/3 1/12/1 
f 7/13/7 8/14/8 6/15/6 5/16/5 
f 5/17/5 6/18/6 2/19/2 1/20/1 
f 12/21/12 9/22/9 3/23/3 4/24/4 
f 9/25/9 10/26/10 7/27/7 3/28/3 
f 10/29/10 11/30/11 8/31/8 7/32/7 
f 11/33/11 12/34/12 4/35/4 8/36/8 
f 12/37/12 11/38/11 10/39/10 9/40/9 
g mesh02
f 16/41/16 20/42/20 19/43/19 15/44/15 
f 21/45/21 17/46/17 13/47/13 22/48/22 
f 22/49/22 15/50/15 19/51/19 21/52/21 
f 23/53/23 14/54/14 18/55/18 24/56/24 
f 24/57/24 20/58/20 16/59/16 23/60/23 
f 27/61/27 18/62/18 14/63/14 26/64/26 
f 26/65/26 14/66/14 23/67/23 28/68/28 
f 25/69/25 24/70/24 18/71/18 27/72/27 
f 25/73/25 29/74/29 21/75/21 19/76/19 20/77/20 24/78/24 
f 31/79/31 13/80/13 17/81/17 30/82/30 
f 32/83/32 22/84/22 13/85/13 31/86/31 
f 28/87/28 23/88/23 16/89/16 15/90/15 22/91/22 32/92/32 
f 30/93/30 17/94/17 21/95/21 29/96/29 
f 32/97/32 31/98/31 30/99/30 29/100/29 
f 28/101/28 32/102/32 29/103/29 25/104/25 
f 27/105/27 26/106/26 28/107/28 25/108/25 
g mesh03
f 36/109/36 40/110/40 39/111/39 35/112/35 
f 37/113/37 38/114/38 34/115/34 33/116/33 
f 42/117/42 35/118/35 39/119/39 41/120/41 
f 44/121/44 40/122/40 36/123/36 43/124/43 
f 43/125/43 36/126/36 35/127/35 42/128/42 
f 41/129/41 39/130/39 40/131/40 44/132/44 
f 45/133/45 42/134/42 41/135/41 46/136/46 
f 46/137/46 37/138/37 33/139/33 45/140/45 
f 47/141/47 44/142/44 43/143/43 48/144/48 
f 48/145/48 34/146/34 38/147/38 47/148/47 
f 48/149/48 43/150/43 42/151/42 45/152/45 
f 45/153/45 33/154/33 34/155/34 48/156/48 
f 46/157/46 41/158/41 44/159/44 47/160/47 
f 47/161/47 38/162/38 37/163/37 46/164/46 
# num_faces: 40

